<?xml version="1.0" encoding="utf-8"?>
<!-- Generator: Adobe Illustrator 24.1.0, SVG Export Plug-In . SVG Version: 6.00 Build 0)  -->
<svg version="1.1" id="Capa_1" xmlns="http://www.w3.org/2000/svg" xmlns:xlink="http://www.w3.org/1999/xlink" x="0px" y="0px"
	 viewBox="0 0 512 512" style="enable-background:new 0 0 512 512;" xml:space="preserve">
<style type="text/css">
	.st0{fill:#FFD782;}
	.st1{fill:#E5A845;}
	.st2{fill:#F9BB4B;}
	.st3{fill:#8EC13F;}
	.st4{fill:#3E8051;}
	.st5{fill:#FCF05A;}
	.st6{fill:#195C85;}
	.st7{fill:#4F97D5;}
	.st8{fill:#5F79BA;}
	.st9{fill:#394D5C;}
	.st10{fill:#F4F4E6;}
</style>
<g id="flat">
	<path class="st0" d="M372.9,406.5c3.9,9.4-0.6,20.8-9.4,25.3L215,506L98.8,489.4v-75h133.1c9.1,0,16.6,7.6,16.6,16.6l91.2-32.9
		C356.2,389.8,368.4,394.3,372.9,406.5z"/>
	<path class="st1" d="M414.8,181.8h32.9l0,0v32.9c0,9.1-7.6,16.6-16.6,16.6c-9.1,0-16.6-7.6-16.6-16.6v-32.9H414.8z"/>
	<path class="st2" d="M381.2,181.8h32.9l0,0v50.3c0,9.1-7.6,16.6-16.6,16.6s-16.2-7.9-16.2-16.6L381.2,181.8L381.2,181.8z"/>
	<path class="st3" d="M48.7,82.2h332.5V232H48.7V82.2z"/>
	<path class="st4" d="M198.4,206.8H82.2c-4.5,0-8.3-3.9-8.3-8.3v-83.2c0-4.5,3.9-8.3,8.3-8.3h66.6v16.6H90.6V190h107.9V206.8
		L198.4,206.8z"/>
	<path class="st4" d="M348.2,107.2H240.3V124H340v66.6h-58.2v16.6h66.6c4.5,0,8.3-3.9,8.3-8.3v-83.2L348.2,107.2z"/>
	<path class="st5" d="M107.2,148.8H124v16.6h-16.8V148.8z"/>
	<path class="st5" d="M306.9,148.8h16.7v16.6H307v-16.6H306.9z"/>
	<path class="st2" d="M232.1,464.1h-83.2v-16.6h83.2c4.5,0,8.3-3.9,8.3-8.3c0-4.5-3.9-8.3-8.3-8.3h-83.2v-16.6h83.2
		c13.8,0,24.7,11.5,24.7,24.7S245.2,464.1,232.1,464.1z"/>
	<path class="st6" d="M65.9,506V398.1h32.9V506H65.9z"/>
	<path class="st7" d="M24,489.4v-75h41.9v75H24z"/>
	<path class="st8" d="M107.2,372.9v-99.5l8.3-8.3h199.1c4.5,0,8.3,3.9,8.3,8.3v99.5c0,4.5-3.9,8.3-8.3,8.3H115.2L107.2,372.9z"/>
	<path class="st9" d="M173.8,265v116.2l0,0h-58.5c-4.5,0-8.3-3.9-8.3-8.3v-99.5c0-4.5,3.9-8.3,8.3-8.3L173.8,265L173.8,265z"/>
	<path class="st10" d="M131.9,315h16.6v16.6h-16.6V315z"/>
	<path class="st0" d="M506,56.9v107.9h-32.9l-24.7,16.6h-67.2v-65.8h-74.1c-9.1,0-16.6-7.6-16.6-16.6s7.6-16.6,16.6-16.6h16.6
		l19-16.6L389.8,24l75,32.9H506z"/>
	<path class="st2" d="M414.8,65.9v16.6h-91.2l19.2-16.6h35.3L400.2,43l12.1,12.1l-10.8,10.8H414.8z"/>
	<path class="st5" d="M273.3,157.1c0,29.2-20.8,53.4-50,57.6c-5.5,0.6-10.8,0.6-16.6,0c-31.6-4.5-53.7-34.4-49.7-65.9
		c3.9-25.3,23.5-45.8,49.7-49.7c5.5-0.6,10.8-0.6,16.6,0C252.1,103.5,273.3,128,273.3,157.1z"/>
	<path class="st4" d="M248.4,173.8c0,13.8-11.5,24.7-24.7,24.7v15.9c-5.5,0.6-11.5,0.6-16.6,0v-15.9h-16.6v-16.6h32.9
		c4.5,0,8.3-3.9,8.3-8.3c0-4.5-3.9-8.3-8.3-8.3H207c-13.8,0-24.7-11.5-24.7-24.7c0-13.8,11.5-24.7,24.7-24.7V99.7
		c5.5-0.6,11.5-0.6,16.6,0v16.1h16.6v15.9h-32.9c-4.5,0-8.3,3.9-8.3,8.3c0,4.5,3.9,8.3,8.3,8.3h16.6
		C237.3,148.8,248.4,159.5,248.4,173.8z"/>
</g>
</svg>
