<?xml version="1.0" encoding="utf-8"?>
<!-- Generator: Adobe Illustrator 24.1.0, SVG Export Plug-In . SVG Version: 6.00 Build 0)  -->
<svg version="1.1" id="Capa_1" xmlns="http://www.w3.org/2000/svg" xmlns:xlink="http://www.w3.org/1999/xlink" x="0px" y="0px"
	 viewBox="0 0 512 512" style="enable-background:new 0 0 512 512;" xml:space="preserve">
<style type="text/css">
	.st0{fill:#FFEB99;}
	.st1{fill:#D80027;}
	.st2{fill:#2488FF;}
	.st3{fill:#FFDE55;}
	.st4{fill:#FFBCAB;}
	.st5{fill:#FF6243;}
	.st6{fill:#5EAC24;}
	.st7{fill:#FF9478;}
</style>
<g id="Contact_form">
	<path class="st0" d="M104,24h318.8v374.8H104V24z"/>
	<path class="st1" d="M151.8,56.1H375v47.8H151.8V56.1z"/>
	<path class="st2" d="M151.8,143.5h47.8v47.8h-47.8V143.5z"/>
	<path class="st2" d="M151.8,223.4h47.8v47.8h-47.8V223.4z"/>
	<path class="st2" d="M151.8,303.2h47.8V351h-47.8V303.2z"/>
	<path class="st3" d="M231.7,398.8h191.2V207.6C422.8,313.5,337.5,398.8,231.7,398.8z"/>
	<path class="st4" d="M487,323v109.2c0,9.6-2.7,18.4-8.2,26.6l-5.5,7.5c-2,2.7-2.7,5.5-2.7,8.9v10.9h-112v-15.7l-4.8-6.8
		c-13-19.1-16.4-43-10.9-64.9h40.3l0,0c-1.4-13,2.7-26.6,11.6-36.2l-23.9-23.9l-18.4-18.4c-9.6-9.6-9.6-24.6,0-34.1
		c9.6-9.6,24.6-9.6,34.1,0l6.1,6.1l28.7,28.7v-88.1l45.1,45.1C480.2,290.3,487,306,487,323L487,323z"/>
	<g>
		<path class="st5" d="M375,191.3H247.4c-4.1,0-8.2-3.4-8.2-8.2c0-4.1,3.4-8.2,8.2-8.2H375c4.1,0,8.2,3.4,8.2,8.2
			C383.2,187.9,379.8,191.3,375,191.3z"/>
		<path class="st5" d="M319.7,271.1h-72.4c-4.1,0-8.2-3.4-8.2-8.2c0-4.1,3.4-8.2,8.2-8.2h71.7c4.1,0,8.2,3.4,8.2,8.2
			C327.2,267.7,323.8,271.1,319.7,271.1z"/>
		<path class="st5" d="M239.9,342.8c0,4.1,3.4,8.2,8.2,8.2h95.6c4.1,0,8.2-3.4,8.2-8.2c0-4.1-3.4-8.2-8.2-8.2h-95.6
			C243.3,335.3,239.9,338.7,239.9,342.8z"/>
		<path class="st5" d="M375,159.9H247.4c-4.1,0-8.2-3.4-8.2-8.2c0-4.1,3.4-8.2,8.2-8.2H375c4.1,0,8.2,3.4,8.2,8.2
			C383.2,155.8,379.8,159.9,375,159.9z"/>
	</g>
	<path class="st6" d="M178.4,181c3.4,3.4,8.2,3.4,11.6,0l39.6-39.6c2.7-3.4,2.7-8.2,0-11.6c-3.4-2.7-8.2-2.7-10.9,0L184.6,164
		l-10.2-10.2c-3.4-2.7-8.2-2.7-11.6,0c-2.7,3.4-2.7,8.2,0,10.9L178.4,181z"/>
	<path class="st6" d="M218,209.7l-34.1,34.1l-10.2-10.2c-3.4-2.7-8.2-2.7-11.6,0c-2.7,3.4-2.7,8.2,0,10.9l15.7,15.7
		c3.4,3.4,8.2,3.4,11.6,0l39.6-39.6c2.7-3.4,2.7-8.2,0-11.6C226.2,207,221.4,207,218,209.7L218,209.7z"/>
	<path class="st6" d="M218,289.6l-34.1,34.1l-10.2-10.2c-3.4-2.7-8.2-2.7-11.6,0c-2.7,3.4-2.7,8.2,0,10.9l15.7,15.7
		c3.4,3.4,8.2,3.4,11.6,0l39.6-39.6c2.7-3.4,2.7-8.2,0-11.6C226.2,286.8,221.4,286.8,218,289.6L218,289.6z"/>
	<path class="st5" d="M375,239.7H247.4c-4.1,0-8.2-3.4-8.2-8.2c0-4.1,3.4-8.2,8.2-8.2H375c4.1,0,8.2,3.4,8.2,8.2
		C383.2,235.6,379.8,239.7,375,239.7z"/>
	<path class="st5" d="M319.7,318.9h-72.4c-4.1,0-8.2-3.4-8.2-8.2c0-4.1,3.4-8.2,8.2-8.2h71.7c4.1,0,8.2,3.4,8.2,8.2
		C327.2,315.5,323.8,318.9,319.7,318.9z"/>
	<path class="st7" d="M387.3,426.1l3.4,4.8h8.2l-3.4-4.8c-6.1-7.5-10.2-17.1-10.9-27.3h-7.5C377.8,409,381.2,418.6,387.3,426.1z"/>
</g>
</svg>
